<svg xmlns="http://www.w3.org/2000/svg" viewBox="0 0 28 29.93"><g data-name="Layer 2"><g data-name="Capa 1"><path d="M21 20.38V27l-5.88 2.93v-6.62Zm7-3.54v6.64L23 26v-6.63Zm-7.06-5.32v6.55L15.08 21v-6.57ZM28 8v6.51l-5 2.54V10.5Zm-13.81-.76 5.24 2.64L14 12.61 8.85 10ZM6.9 3.56l5 2.52-5.35 2.79-5.14-2.58Zm14.29 0 5.39 2.7-4.82 2.45-5.25-2.65ZM14 0l4.84 2.43-4.62 2.48-5-2.52Z" style="fill:#00b5d8"/><path d="m13 14.43-4-2V21S4.21 10.74 3.77 9.82c-.06-.12-.3-.25-.36-.29L0 7.79V23l3.52 1.88v-7.96l4.83 9.3a4.28 4.28 0 0 0 1.05 1.41c.68.45 3.61 2.22 3.61 2.22Z" style="fill:#3182ce"/></g></g></svg>