<svg xmlns="http://www.w3.org/2000/svg" viewBox="0 0 20.97 24.99"><defs><style>.cls-1{fill:#dd6b20}</style></defs><g id="Layer_2" data-name="Layer 2"><g id="Capa_1" data-name="Capa 1"><path class="cls-1" d="M17.88 7.31 16 9.17a7.61 7.61 0 0 1 0 11 7.89 7.89 0 0 1-11.11 0 7.61 7.61 0 0 1 0-11l4.9-4.84.7-.69V0l-7.4 7.29a10.24 10.24 0 0 0 0 14.71 10.53 10.53 0 0 0 14.81 0 10.25 10.25 0 0 0-.02-14.69Z"/><path class="cls-1" d="M14.18 6.87a1.35 1.35 0 1 0-1.37-1.35 1.36 1.36 0 0 0 1.37 1.35Z"/></g></g></svg>