<svg xmlns="http://www.w3.org/2000/svg" viewBox="0 0 25.98 23.88"><g data-name="Layer 2"><g data-name="Capa 1"><path d="M22.92 12.42a6.2 6.2 0 1 1-6.3 0l1.78 3a.16.16 0 0 1 0 .22 2.55 2.55 0 1 0 2.85 0 .16.16 0 0 1-.05-.22Z" style="fill:#3182ce"/><path d="M9.23 12.39a6.12 6.12 0 1 0 3.17 5.2H8.91a.16.16 0 0 0-.16.16 2.57 2.57 0 0 1-2.55 2.51 2.52 2.52 0 1 1 0-5 2.58 2.58 0 0 1 1 .21.16.16 0 0 0 .21-.06Z" style="fill:#48bb78"/><path d="M9.73 11.42a6.16 6.16 0 1 1 9.35-5.28 6.09 6.09 0 0 1-3 5.28l-1.77-3a.16.16 0 0 1 .05-.22 2.55 2.55 0 1 0-2.85 0 .17.17 0 0 1 0 .22Z" style="fill:#c53030"/></g></g></svg>